<mxfile host="app.diagrams.net" agent="Mozilla/5.0 (Windows NT 10.0; Win64; x64) AppleWebKit/537.36 (KHTML, like Gecko) Chrome/133.0.0.0 Safari/537.36" version="26.0.13">
  <diagram id="_7QDCCbp3_94AvrBaGnv" name="Page-1">
    <mxGraphModel dx="2261" dy="833" grid="1" gridSize="10" guides="1" tooltips="1" connect="1" arrows="1" fold="1" page="1" pageScale="1" pageWidth="827" pageHeight="1169" math="0" shadow="0">
      <root>
        <mxCell id="0" />
        <mxCell id="1" parent="0" />
        <mxCell id="Q9UF3QvVFfd2fX2CLm1--1" value="" style="rounded=0;whiteSpace=wrap;html=1;" parent="1" vertex="1">
          <mxGeometry x="80" y="110" width="1190" height="730" as="geometry" />
        </mxCell>
        <mxCell id="Q9UF3QvVFfd2fX2CLm1--2" value="" style="sketch=0;outlineConnect=0;fontColor=#232F3E;gradientColor=none;fillColor=#8C4FFF;strokeColor=none;dashed=0;verticalLabelPosition=bottom;verticalAlign=top;align=center;html=1;fontSize=12;fontStyle=0;aspect=fixed;pointerEvents=1;shape=mxgraph.aws4.application_load_balancer;" parent="1" vertex="1">
          <mxGeometry x="150" y="376" width="78" height="78" as="geometry" />
        </mxCell>
        <mxCell id="Q9UF3QvVFfd2fX2CLm1--3" value="Load balancer&lt;div&gt;Cloud or OnPrem&amp;nbsp;&lt;div&gt;Level 7 OSI&lt;/div&gt;&lt;/div&gt;" style="text;html=1;align=center;verticalAlign=middle;whiteSpace=wrap;rounded=0;" parent="1" vertex="1">
          <mxGeometry x="90" y="309" width="82" height="60" as="geometry" />
        </mxCell>
        <mxCell id="Q9UF3QvVFfd2fX2CLm1--4" value="" style="rounded=1;whiteSpace=wrap;html=1;" parent="1" vertex="1">
          <mxGeometry x="280" y="130" width="676" height="600" as="geometry" />
        </mxCell>
        <mxCell id="Q9UF3QvVFfd2fX2CLm1--6" value="Kubernetes Cluster" style="text;html=1;align=center;verticalAlign=middle;whiteSpace=wrap;rounded=0;fontSize=16;" parent="1" vertex="1">
          <mxGeometry x="360" y="735" width="290" height="40" as="geometry" />
        </mxCell>
        <mxCell id="Q9UF3QvVFfd2fX2CLm1--8" value="" style="rounded=1;whiteSpace=wrap;html=1;" parent="1" vertex="1">
          <mxGeometry x="310" y="140" width="580" height="570" as="geometry" />
        </mxCell>
        <mxCell id="Q9UF3QvVFfd2fX2CLm1--19" value="" style="rounded=0;whiteSpace=wrap;html=1;" parent="1" vertex="1">
          <mxGeometry x="343" y="359.5" width="220" height="110" as="geometry" />
        </mxCell>
        <mxCell id="Q9UF3QvVFfd2fX2CLm1--13" value="" style="aspect=fixed;sketch=0;html=1;dashed=0;whitespace=wrap;verticalLabelPosition=bottom;verticalAlign=top;fillColor=#2875E2;strokeColor=#ffffff;points=[[0.005,0.63,0],[0.1,0.2,0],[0.9,0.2,0],[0.5,0,0],[0.995,0.63,0],[0.72,0.99,0],[0.5,1,0],[0.28,0.99,0]];shape=mxgraph.kubernetes.icon2;kubernetesLabel=1;prIcon=deploy" parent="1" vertex="1">
          <mxGeometry x="543" y="440.5" width="50" height="48" as="geometry" />
        </mxCell>
        <mxCell id="Q9UF3QvVFfd2fX2CLm1--20" value="G4IT Back-office deployment" style="text;html=1;align=center;verticalAlign=middle;whiteSpace=wrap;rounded=0;fontStyle=1" parent="1" vertex="1">
          <mxGeometry x="353" y="359.5" width="180" height="30" as="geometry" />
        </mxCell>
        <mxCell id="Q9UF3QvVFfd2fX2CLm1--16" value="" style="aspect=fixed;sketch=0;html=1;dashed=0;whitespace=wrap;verticalLabelPosition=bottom;verticalAlign=top;fillColor=#2875E2;strokeColor=#ffffff;points=[[0.005,0.63,0],[0.1,0.2,0],[0.9,0.2,0],[0.5,0,0],[0.995,0.63,0],[0.72,0.99,0],[0.5,1,0],[0.28,0.99,0]];shape=mxgraph.kubernetes.icon2;kubernetesLabel=1;prIcon=c_m" parent="1" vertex="1">
          <mxGeometry x="493" y="430.5" width="50" height="48" as="geometry" />
        </mxCell>
        <mxCell id="Q9UF3QvVFfd2fX2CLm1--15" value="" style="aspect=fixed;sketch=0;html=1;dashed=0;whitespace=wrap;verticalLabelPosition=bottom;verticalAlign=top;fillColor=#2875E2;strokeColor=#ffffff;points=[[0.005,0.63,0],[0.1,0.2,0],[0.9,0.2,0],[0.5,0,0],[0.995,0.63,0],[0.72,0.99,0],[0.5,1,0],[0.28,0.99,0]];shape=mxgraph.kubernetes.icon2;kubernetesLabel=1;prIcon=svc" parent="1" vertex="1">
          <mxGeometry x="325" y="440.5" width="50" height="48" as="geometry" />
        </mxCell>
        <mxCell id="Q9UF3QvVFfd2fX2CLm1--14" value="" style="aspect=fixed;sketch=0;html=1;dashed=0;whitespace=wrap;verticalLabelPosition=bottom;verticalAlign=top;fillColor=#2875E2;strokeColor=#ffffff;points=[[0.005,0.63,0],[0.1,0.2,0],[0.9,0.2,0],[0.5,0,0],[0.995,0.63,0],[0.72,0.99,0],[0.5,1,0],[0.28,0.99,0]];shape=mxgraph.kubernetes.icon2;kubernetesLabel=1;prIcon=pod" parent="1" vertex="1">
          <mxGeometry x="398" y="399.5" width="50" height="48" as="geometry" />
        </mxCell>
        <mxCell id="Q9UF3QvVFfd2fX2CLm1--22" value="" style="rounded=0;whiteSpace=wrap;html=1;" parent="1" vertex="1">
          <mxGeometry x="625" y="360" width="220" height="110" as="geometry" />
        </mxCell>
        <mxCell id="Q9UF3QvVFfd2fX2CLm1--23" value="" style="aspect=fixed;sketch=0;html=1;dashed=0;whitespace=wrap;verticalLabelPosition=bottom;verticalAlign=top;fillColor=#2875E2;strokeColor=#ffffff;points=[[0.005,0.63,0],[0.1,0.2,0],[0.9,0.2,0],[0.5,0,0],[0.995,0.63,0],[0.72,0.99,0],[0.5,1,0],[0.28,0.99,0]];shape=mxgraph.kubernetes.icon2;kubernetesLabel=1;prIcon=deploy" parent="1" vertex="1">
          <mxGeometry x="825" y="441" width="50" height="48" as="geometry" />
        </mxCell>
        <mxCell id="Q9UF3QvVFfd2fX2CLm1--24" value="G4IT Boavizta deployment" style="text;html=1;align=center;verticalAlign=middle;whiteSpace=wrap;rounded=0;fontStyle=1" parent="1" vertex="1">
          <mxGeometry x="635" y="360" width="180" height="30" as="geometry" />
        </mxCell>
        <mxCell id="Q9UF3QvVFfd2fX2CLm1--25" value="" style="aspect=fixed;sketch=0;html=1;dashed=0;whitespace=wrap;verticalLabelPosition=bottom;verticalAlign=top;fillColor=#2875E2;strokeColor=#ffffff;points=[[0.005,0.63,0],[0.1,0.2,0],[0.9,0.2,0],[0.5,0,0],[0.995,0.63,0],[0.72,0.99,0],[0.5,1,0],[0.28,0.99,0]];shape=mxgraph.kubernetes.icon2;kubernetesLabel=1;prIcon=c_m" parent="1" vertex="1">
          <mxGeometry x="775" y="431" width="50" height="48" as="geometry" />
        </mxCell>
        <mxCell id="Q9UF3QvVFfd2fX2CLm1--26" value="" style="aspect=fixed;sketch=0;html=1;dashed=0;whitespace=wrap;verticalLabelPosition=bottom;verticalAlign=top;fillColor=#2875E2;strokeColor=#ffffff;points=[[0.005,0.63,0],[0.1,0.2,0],[0.9,0.2,0],[0.5,0,0],[0.995,0.63,0],[0.72,0.99,0],[0.5,1,0],[0.28,0.99,0]];shape=mxgraph.kubernetes.icon2;kubernetesLabel=1;prIcon=svc" parent="1" vertex="1">
          <mxGeometry x="593" y="397" width="50" height="48" as="geometry" />
        </mxCell>
        <mxCell id="Q9UF3QvVFfd2fX2CLm1--27" value="" style="aspect=fixed;sketch=0;html=1;dashed=0;whitespace=wrap;verticalLabelPosition=bottom;verticalAlign=top;fillColor=#2875E2;strokeColor=#ffffff;points=[[0.005,0.63,0],[0.1,0.2,0],[0.9,0.2,0],[0.5,0,0],[0.995,0.63,0],[0.72,0.99,0],[0.5,1,0],[0.28,0.99,0]];shape=mxgraph.kubernetes.icon2;kubernetesLabel=1;prIcon=pod" parent="1" vertex="1">
          <mxGeometry x="665" y="400" width="50" height="48" as="geometry" />
        </mxCell>
        <mxCell id="Q9UF3QvVFfd2fX2CLm1--28" value="x Replica" style="text;html=1;align=center;verticalAlign=middle;whiteSpace=wrap;rounded=0;" parent="1" vertex="1">
          <mxGeometry x="675" y="441" width="60" height="30" as="geometry" />
        </mxCell>
        <mxCell id="Q9UF3QvVFfd2fX2CLm1--29" value="x Replica" style="text;html=1;align=center;verticalAlign=middle;whiteSpace=wrap;rounded=0;" parent="1" vertex="1">
          <mxGeometry x="388" y="440.5" width="60" height="30" as="geometry" />
        </mxCell>
        <mxCell id="Q9UF3QvVFfd2fX2CLm1--30" value="" style="rounded=0;whiteSpace=wrap;html=1;" parent="1" vertex="1">
          <mxGeometry x="335" y="180" width="220" height="110" as="geometry" />
        </mxCell>
        <mxCell id="Q9UF3QvVFfd2fX2CLm1--31" value="" style="aspect=fixed;sketch=0;html=1;dashed=0;whitespace=wrap;verticalLabelPosition=bottom;verticalAlign=top;fillColor=#2875E2;strokeColor=#ffffff;points=[[0.005,0.63,0],[0.1,0.2,0],[0.9,0.2,0],[0.5,0,0],[0.995,0.63,0],[0.72,0.99,0],[0.5,1,0],[0.28,0.99,0]];shape=mxgraph.kubernetes.icon2;kubernetesLabel=1;prIcon=deploy" parent="1" vertex="1">
          <mxGeometry x="535" y="261" width="50" height="48" as="geometry" />
        </mxCell>
        <mxCell id="Q9UF3QvVFfd2fX2CLm1--32" value="G4IT front-office deployment" style="text;html=1;align=center;verticalAlign=middle;whiteSpace=wrap;rounded=0;fontStyle=1" parent="1" vertex="1">
          <mxGeometry x="345" y="180" width="180" height="30" as="geometry" />
        </mxCell>
        <mxCell id="Q9UF3QvVFfd2fX2CLm1--33" value="" style="aspect=fixed;sketch=0;html=1;dashed=0;whitespace=wrap;verticalLabelPosition=bottom;verticalAlign=top;fillColor=#2875E2;strokeColor=#ffffff;points=[[0.005,0.63,0],[0.1,0.2,0],[0.9,0.2,0],[0.5,0,0],[0.995,0.63,0],[0.72,0.99,0],[0.5,1,0],[0.28,0.99,0]];shape=mxgraph.kubernetes.icon2;kubernetesLabel=1;prIcon=c_m" parent="1" vertex="1">
          <mxGeometry x="485" y="252" width="50" height="48" as="geometry" />
        </mxCell>
        <mxCell id="Q9UF3QvVFfd2fX2CLm1--34" value="" style="aspect=fixed;sketch=0;html=1;dashed=0;whitespace=wrap;verticalLabelPosition=bottom;verticalAlign=top;fillColor=#2875E2;strokeColor=#ffffff;points=[[0.005,0.63,0],[0.1,0.2,0],[0.9,0.2,0],[0.5,0,0],[0.995,0.63,0],[0.72,0.99,0],[0.5,1,0],[0.28,0.99,0]];shape=mxgraph.kubernetes.icon2;kubernetesLabel=1;prIcon=svc" parent="1" vertex="1">
          <mxGeometry x="310" y="261" width="50" height="48" as="geometry" />
        </mxCell>
        <mxCell id="Q9UF3QvVFfd2fX2CLm1--35" value="" style="aspect=fixed;sketch=0;html=1;dashed=0;whitespace=wrap;verticalLabelPosition=bottom;verticalAlign=top;fillColor=#2875E2;strokeColor=#ffffff;points=[[0.005,0.63,0],[0.1,0.2,0],[0.9,0.2,0],[0.5,0,0],[0.995,0.63,0],[0.72,0.99,0],[0.5,1,0],[0.28,0.99,0]];shape=mxgraph.kubernetes.icon2;kubernetesLabel=1;prIcon=pod" parent="1" vertex="1">
          <mxGeometry x="375" y="220" width="50" height="48" as="geometry" />
        </mxCell>
        <mxCell id="Q9UF3QvVFfd2fX2CLm1--36" value="x Replicat" style="text;html=1;align=center;verticalAlign=middle;whiteSpace=wrap;rounded=0;" parent="1" vertex="1">
          <mxGeometry x="380" y="261" width="60" height="30" as="geometry" />
        </mxCell>
        <mxCell id="Q9UF3QvVFfd2fX2CLm1--37" value="" style="rounded=0;whiteSpace=wrap;html=1;" parent="1" vertex="1">
          <mxGeometry x="335" y="540" width="220" height="110" as="geometry" />
        </mxCell>
        <mxCell id="Q9UF3QvVFfd2fX2CLm1--39" value="G4IT Keycloack statefull set" style="text;html=1;align=center;verticalAlign=middle;whiteSpace=wrap;rounded=0;fontStyle=1" parent="1" vertex="1">
          <mxGeometry x="345" y="540" width="180" height="30" as="geometry" />
        </mxCell>
        <mxCell id="Q9UF3QvVFfd2fX2CLm1--40" value="" style="aspect=fixed;sketch=0;html=1;dashed=0;whitespace=wrap;verticalLabelPosition=bottom;verticalAlign=top;fillColor=#2875E2;strokeColor=#ffffff;points=[[0.005,0.63,0],[0.1,0.2,0],[0.9,0.2,0],[0.5,0,0],[0.995,0.63,0],[0.72,0.99,0],[0.5,1,0],[0.28,0.99,0]];shape=mxgraph.kubernetes.icon2;kubernetesLabel=1;prIcon=c_m" parent="1" vertex="1">
          <mxGeometry x="485" y="611" width="50" height="48" as="geometry" />
        </mxCell>
        <mxCell id="Q9UF3QvVFfd2fX2CLm1--41" value="" style="aspect=fixed;sketch=0;html=1;dashed=0;whitespace=wrap;verticalLabelPosition=bottom;verticalAlign=top;fillColor=#2875E2;strokeColor=#ffffff;points=[[0.005,0.63,0],[0.1,0.2,0],[0.9,0.2,0],[0.5,0,0],[0.995,0.63,0],[0.72,0.99,0],[0.5,1,0],[0.28,0.99,0]];shape=mxgraph.kubernetes.icon2;kubernetesLabel=1;prIcon=svc" parent="1" vertex="1">
          <mxGeometry x="295" y="580" width="50" height="48" as="geometry" />
        </mxCell>
        <mxCell id="Q9UF3QvVFfd2fX2CLm1--42" value="" style="aspect=fixed;sketch=0;html=1;dashed=0;whitespace=wrap;verticalLabelPosition=bottom;verticalAlign=top;fillColor=#2875E2;strokeColor=#ffffff;points=[[0.005,0.63,0],[0.1,0.2,0],[0.9,0.2,0],[0.5,0,0],[0.995,0.63,0],[0.72,0.99,0],[0.5,1,0],[0.28,0.99,0]];shape=mxgraph.kubernetes.icon2;kubernetesLabel=1;prIcon=pod" parent="1" vertex="1">
          <mxGeometry x="375" y="580" width="50" height="48" as="geometry" />
        </mxCell>
        <mxCell id="Q9UF3QvVFfd2fX2CLm1--43" value="x Replicat" style="text;html=1;align=center;verticalAlign=middle;whiteSpace=wrap;rounded=0;" parent="1" vertex="1">
          <mxGeometry x="380" y="621" width="60" height="30" as="geometry" />
        </mxCell>
        <mxCell id="Q9UF3QvVFfd2fX2CLm1--44" value="" style="aspect=fixed;sketch=0;html=1;dashed=0;whitespace=wrap;verticalLabelPosition=bottom;verticalAlign=top;fillColor=#2875E2;strokeColor=#ffffff;points=[[0.005,0.63,0],[0.1,0.2,0],[0.9,0.2,0],[0.5,0,0],[0.995,0.63,0],[0.72,0.99,0],[0.5,1,0],[0.28,0.99,0]];shape=mxgraph.kubernetes.icon2;kubernetesLabel=1;prIcon=sts" parent="1" vertex="1">
          <mxGeometry x="530" y="621" width="50" height="48" as="geometry" />
        </mxCell>
        <mxCell id="Q9UF3QvVFfd2fX2CLm1--7" value="" style="aspect=fixed;sketch=0;html=1;dashed=0;whitespace=wrap;verticalLabelPosition=bottom;verticalAlign=top;fillColor=#2875E2;strokeColor=#ffffff;points=[[0.005,0.63,0],[0.1,0.2,0],[0.9,0.2,0],[0.5,0,0],[0.995,0.63,0],[0.72,0.99,0],[0.5,1,0],[0.28,0.99,0]];shape=mxgraph.kubernetes.icon2;prIcon=ns" parent="1" vertex="1">
          <mxGeometry x="325" y="662" width="50" height="48" as="geometry" />
        </mxCell>
        <mxCell id="r85nlmR_cv3qLG-WCyQc-2" value="" style="rounded=1;whiteSpace=wrap;html=1;" vertex="1" parent="1">
          <mxGeometry x="1035.6" y="470" width="204.4" height="210" as="geometry" />
        </mxCell>
        <mxCell id="Q9UF3QvVFfd2fX2CLm1--17" value="" style="image;sketch=0;aspect=fixed;html=1;points=[];align=center;fontSize=12;image=img/lib/mscae/Azure_Database_for_PostgreSQL_servers.svg;" parent="1" vertex="1">
          <mxGeometry x="1069.8" y="480" width="60.8" height="80" as="geometry" />
        </mxCell>
        <mxCell id="Q9UF3QvVFfd2fX2CLm1--18" value="" style="image;sketch=0;aspect=fixed;html=1;points=[];align=center;fontSize=12;image=img/lib/mscae/Azure_Database_for_PostgreSQL_servers.svg;" parent="1" vertex="1">
          <mxGeometry x="1069.8" y="570" width="60.8" height="80" as="geometry" />
        </mxCell>
        <mxCell id="r85nlmR_cv3qLG-WCyQc-3" value="Postgresql Server" style="text;html=1;align=center;verticalAlign=middle;whiteSpace=wrap;rounded=0;fontSize=14;" vertex="1" parent="1">
          <mxGeometry x="1088.5" y="415" width="79.6" height="40" as="geometry" />
        </mxCell>
        <mxCell id="r85nlmR_cv3qLG-WCyQc-4" value="PGDB Instance G4IT" style="text;html=1;align=left;verticalAlign=middle;whiteSpace=wrap;rounded=0;fontSize=12;" vertex="1" parent="1">
          <mxGeometry x="1140.4" y="530" width="80" height="30" as="geometry" />
        </mxCell>
        <mxCell id="r85nlmR_cv3qLG-WCyQc-5" value="PGDB Instance Keycloak" style="text;html=1;align=left;verticalAlign=middle;whiteSpace=wrap;rounded=0;fontSize=12;" vertex="1" parent="1">
          <mxGeometry x="1140" y="590" width="80" height="52.5" as="geometry" />
        </mxCell>
        <mxCell id="r85nlmR_cv3qLG-WCyQc-7" value="" style="edgeStyle=elbowEdgeStyle;elbow=vertical;endArrow=classic;html=1;curved=0;rounded=0;endSize=8;startSize=8;entryX=0.005;entryY=0.63;entryDx=0;entryDy=0;entryPerimeter=0;" edge="1" parent="1" source="Q9UF3QvVFfd2fX2CLm1--2" target="Q9UF3QvVFfd2fX2CLm1--41">
          <mxGeometry width="50" height="50" relative="1" as="geometry">
            <mxPoint x="700" y="730" as="sourcePoint" />
            <mxPoint x="750" y="680" as="targetPoint" />
            <Array as="points">
              <mxPoint x="240" y="610" />
            </Array>
          </mxGeometry>
        </mxCell>
        <mxCell id="r85nlmR_cv3qLG-WCyQc-8" value="" style="edgeStyle=elbowEdgeStyle;elbow=vertical;endArrow=classic;html=1;curved=0;rounded=0;endSize=8;startSize=8;entryX=0.005;entryY=0.63;entryDx=0;entryDy=0;entryPerimeter=0;" edge="1" parent="1" source="Q9UF3QvVFfd2fX2CLm1--2" target="Q9UF3QvVFfd2fX2CLm1--34">
          <mxGeometry width="50" height="50" relative="1" as="geometry">
            <mxPoint x="700" y="550" as="sourcePoint" />
            <mxPoint x="750" y="500" as="targetPoint" />
            <Array as="points">
              <mxPoint x="260" y="291" />
            </Array>
          </mxGeometry>
        </mxCell>
        <mxCell id="r85nlmR_cv3qLG-WCyQc-10" value="" style="edgeStyle=elbowEdgeStyle;elbow=vertical;endArrow=classic;html=1;curved=0;rounded=0;endSize=8;startSize=8;entryX=0.005;entryY=0.63;entryDx=0;entryDy=0;entryPerimeter=0;" edge="1" parent="1" source="Q9UF3QvVFfd2fX2CLm1--2" target="Q9UF3QvVFfd2fX2CLm1--15">
          <mxGeometry width="50" height="50" relative="1" as="geometry">
            <mxPoint x="700" y="520" as="sourcePoint" />
            <mxPoint x="750" y="470" as="targetPoint" />
            <Array as="points">
              <mxPoint x="260" y="471" />
            </Array>
          </mxGeometry>
        </mxCell>
        <mxCell id="r85nlmR_cv3qLG-WCyQc-11" value="" style="edgeStyle=elbowEdgeStyle;elbow=horizontal;endArrow=classic;html=1;curved=0;rounded=0;endSize=8;startSize=8;exitX=1;exitY=0.5;exitDx=0;exitDy=0;entryX=0.005;entryY=0.63;entryDx=0;entryDy=0;entryPerimeter=0;" edge="1" parent="1" source="Q9UF3QvVFfd2fX2CLm1--19" target="Q9UF3QvVFfd2fX2CLm1--26">
          <mxGeometry width="50" height="50" relative="1" as="geometry">
            <mxPoint x="700" y="520" as="sourcePoint" />
            <mxPoint x="750" y="470" as="targetPoint" />
          </mxGeometry>
        </mxCell>
        <mxCell id="r85nlmR_cv3qLG-WCyQc-12" value="" style="sketch=0;outlineConnect=0;fontColor=#232F3E;gradientColor=none;fillColor=#232F3D;strokeColor=none;dashed=0;verticalLabelPosition=bottom;verticalAlign=top;align=center;html=1;fontSize=12;fontStyle=0;aspect=fixed;pointerEvents=1;shape=mxgraph.aws4.user;" vertex="1" parent="1">
          <mxGeometry x="-8" y="377" width="78" height="78" as="geometry" />
        </mxCell>
        <mxCell id="r85nlmR_cv3qLG-WCyQc-13" value="" style="endArrow=classic;html=1;rounded=0;" edge="1" parent="1" source="r85nlmR_cv3qLG-WCyQc-12" target="Q9UF3QvVFfd2fX2CLm1--2">
          <mxGeometry width="50" height="50" relative="1" as="geometry">
            <mxPoint x="560" y="520" as="sourcePoint" />
            <mxPoint x="610" y="470" as="targetPoint" />
          </mxGeometry>
        </mxCell>
        <mxCell id="r85nlmR_cv3qLG-WCyQc-14" value="https" style="text;html=1;align=center;verticalAlign=middle;whiteSpace=wrap;rounded=0;" vertex="1" parent="1">
          <mxGeometry x="70" y="389.5" width="60" height="30" as="geometry" />
        </mxCell>
        <mxCell id="r85nlmR_cv3qLG-WCyQc-16" value="Internet User" style="text;html=1;align=center;verticalAlign=middle;whiteSpace=wrap;rounded=0;" vertex="1" parent="1">
          <mxGeometry x="1" y="469.5" width="60" height="30" as="geometry" />
        </mxCell>
        <mxCell id="Q9UF3QvVFfd2fX2CLm1--5" value="" style="shape=image;verticalLabelPosition=bottom;labelBackgroundColor=default;verticalAlign=top;aspect=fixed;imageAspect=0;image=data:image/png,iVBORw0KGgoAAAANSUhEUgAAAT4AAACfCAMAAABX0UX9AAABI1BMVEX///80buU3NTY2Njb9/////f41beX8//7///00NDQ0buMzMzMqKio0beckJCQuLi7Dw8NNTU2FhIUpJyikpKQiZNvH1/CYmJiQkJApJiiHh4cgICDX19c6NTcvLC2/vb3l5eVvb2/y8vLMzMxeXl4bGxvy/v////jq6eqrq6t/fX5lY2O2tLVCQEHz+P5Ac9XV5vcrZNU0aOckYuEAAABSUlLq8PttjtY6bNODnt62z+xihNNVesXK2++qweROdstZf9Wdst7o6/ytvena8Pt+pNeVuuWWq+NjitaBouBJcd3O5vO2ye9mkdIvY825yt4ybb5gickxactUfNwpV8+Vp8uIqduEl9E0ZutKfM5lfMo4drJ2h8WcxOaMreGmteR8lODuJiMPAAAUy0lEQVR4nO2dC3vayJKGhdANCSEwFgaLYMAgbDAXiXAxHoOd4PgyNjtjn03ss2e88/9/xVZ1S0JgkrHnhEOy0vdkEiFaUuuluququ6VhmFChQoUKFSpUqFChQoUKFSpUqFChQoUK9QOL43ieYXhu0/X4OYXcWv0WYNx0TX5C8RLDZwbD2f1xh3zcdH1+InGcJDHm6KRrq3JEsI4zHNIM9RoBKo5jzPEvumALERllDU65EN/rBKYH8Ca6IERUVY1E7IgcUfWrkSiFLfiboi5Cklp/TCwwu0gkIgBAVUAbtK2zkcmEJvgNgdkBwf55uwvs1Dk+MD9owbY+AYAMz/NSSPGlOGi1Ne7D89CSVUEGk3Mk079lWVX1ycc+9IwhvhUCf8FML4a6AJYH/3n4PBGA7U/QhCVs5iFDTzwj1SRuemwJgipjiyVdH2yr6o0HEvDBPn12OZUkOCDE55PEde4snThbDx/8dfbcRmguP9If6tb1FJv6pqv8g0gCiadXOomRCTwXn9o2mY5lC1QuPtXWZ9cd7AEhKd505Tcv6MoyJ5btIPMZmqwOGM68USMvJKjW8a84oBB4fGBEt2e6TOIT0uGhz5UdfCccbw5f0sMCkRmkInywh2PA8MRTSDBk1YG2iE+456SOJdBPC/CgmQu2ddcPNj5ofhnrBns8JzZewBcRZi3p1KIB9BI+Qldu92uBbr5Sa2L7U4s5Psw4ZKvP/JeuLtmeR1eWrS+Btj5OyljYDgXSQBcbKUbPv7X4Ux0wLgN0Pwr3rU3fwmb1iVhcRF7GJ6i63n4aQ+f4ZTLsdtWXSQgpNcts+gY2q4Hg4oMcg4QuEPQJEd06GXdaIidKoihOM5cPlizIXrsVPNbWp03fwEYlzlzrsx8ebNrLqbY6e/6Vw8kOYCdymGCImYFFRhEQ3vDsxgEYke82fQcbVUeXHaMamOYnixoWScp4hEf+8CCuJmYesCwYaTvD9R+Id4HucRLkzk8aW9SIZH0s1bhP1o2s2sMRhNKiWIO/WqIocQzHYBNmWp+xsG1lpBpzZ1Pswqyz6XvYoLhj1e3OBmYN+Onq49lUgnAQp4ouJh2gNj77fAoIRZFnRjNVnp3CcZ2hk8mp+njT97A5ieZEddyBrJ9kuJo5Hvxu1kQIp/vPQ93WOxLg03X9YWwSKzydXHTgqPFQdVyxYB9zUlBjP3E6Ux3zQ4BfWuAl0Nfy5vm9BbG03uFE5hacLg7UowFyOMbSuZqRQRmkJ6gPrVpA8dWYkeUMFUBYAr1e+4PI8dDd9c9sDGBUawr4RuBQIjeCfglkwaPAZ2Eoq9T84FirX9v0fWxIEnPtH4xSbf1SAk/Lib/gEKkKOE1ssBbmH4L9j/9meAnC6AeVJnZO+qaPgopP5H5ZwveFQRcrTSHI8/DRtE61zk0O8WF3OU9BwGY/M+Kmb2QzkszhQi5mD/s49MwzNfPTEHIQtd0CfBgayo/tDMOLNZzigAY/5wet/oQLKD7mVF/Ap3+ugX3xNQiUpc6TLgtn6Cv6FoQnxy1R4iH046SaeQLM5vgis1ZQJ40+df301BlEfNKH36c1wMeYn2f6FfhUbmqp97cYy9SYzO8m8P04W8CnB3bUYGAvtN0Bzl5c6JMPuJSA4TJfThn4R7z9/AHSDvC5t7PuLbiPlqX68XU/bvo2NqRW+3Gh7Y6B2od7WRieShxZiiHxJP/AxX6A7xxSkhMR9h8L/r5PuAvolHnHZ0YAYtbhMaobQnd2S5ay4FABx5AFumKNu8Rx09kUer+x7DssYrfFYC7bGOv+KQx1Ah0bdyGTYYExx+NAFTpVxAcOZQD0VNm6ZUSc/pgfJgtWJ4j4OOZYn7dCyF4H6FyfSA4nzD6h1xDFTqePU+GSOOjinIiMkaHUmvn6TPAdIzLTHjCEnPggL0TN1+gWhpi+CfbjxMQSHy2LjEhJHYtGK+oV5HTmg0qmlNxRgwtAGjR8ktSfCfISPqYPQQk0R+vsFqxPOoV+UJj0EeRlG1fARNQnHIA+o+s2vFYv1oJGj2Zj/hk0Yn19XbbuBx87JsnEMpZwE7mfklWTZuf8avZoAyrOPLNVwTerNJzWgsWOwVjjs7yMD1KM355HLbFWkyD1ZWp9S5fVM5OWh1C6P/rznzh8f2bbvqUHgj4KmOkx6A3OPAsi8Ys9YHC0Bd0Ah3NEgE8cncx+70g0iubJnAcH0aA5wQNUr/XalwHE17K8dbc4qTu7HzHE2wIfsD4emfHQZDlvFZUTxMDO8UzXbTXiOh71JIBx8+nMa3wPd9fPoz559EXEBzg4sdU55R1BUa6V+WCScRU0Q2i+09H4+eIJsDvBSz94+MaW23QvTYnBRlsTcRBrevrx4mRoWec4tEzoSeKVrk9+vxhn+iLyk6ixmXeO/and0+DhG7iOU+9g19XKnKKBtf5nptsYOVvHDjuCT4UWruuW/i9M5qZQFL6Uxjp1wIJ+Hjh8Ytt2mp5+KYqnF/e69SQCr2dLBlaQX3SIxwCrhN5wDDkHrqDsjrDru9f19nPHNK8EZ/GQ+iVwT122hl7QbLXbEB/LqnXKc4w5s0l6ccLh2Pz5ZCRBG+63ce4oYl8BSmaMU+SPevtmSFZ3YN5xF7iF4twTTmHQvsvG1S2ybF8zEid9/Af4VFUfiVxNmuqPv5jQA3LPZOrtvlPjudaZShaXqt46IdW+Jg9OB0rn0HOpNOknS+kBg9UBz8td67C7baKDGEAfeI5LNqaWAF3cH/iw5Vh3llE6SyRxqcFp0IwPHOeJ7o7bCThwhVPfVzxEzuYdZG7PuGacpHWQtAG/gRrpXoMhiq17QXZXZRH2EaF7LQbOdfB8v6365xyhOUYgWuFFybyzZh2cMjoRnCbNS7dd/VjEdS5f9EjEXZVFZspl/coMXtYBQXLG8sbsqBlFZCuDJMzPdxIgG1kACDxKh+PF1m//S1YJjS3BWQTt5LyqPJmKwcOHq1XGTt7mLsuFgKXdqTGixLVqPN+ayOT5NuEOTFXsY7fIjWbuGnJndX1EnmUkM3gjLpBTiMy15R/xQxrC/a9kQS5EIuc6OhXwylaGvBhCrEmZe7KKV404+OAPDt+LwfMcuKxe4q6WlswLkUd5xJBZDunD+PpkMmmfXY8/MJi+SczHruq4DY9391LkAvqeA0lk+sPHhRF7fJpj9oxLCsij5ThwxZGXkgDA1nF38cE3cBvCAFo6LwYUIMNk9MiSAUKod1mr8c5yPgKQrmL5l7sOel7WbpOlqGLwAhciaL9jy/fgPaFzI3+WaqKJ1kng4cgpB2HgP2XvufwIHS2VIc7Gbk8M3lQRlcQzF5a9+MipYEHv98dvx7cfWtByOdPsjAf3ENCc09jGwxfBWV9ie4HFhwN8A31hxi2inogQJduPXX328PT0NJlZ+qNtTWutthxxnt4i+FRITTDTDTY+EbIPPz7hfsqIV6pNUmHyJMwQFz4/M7XMTBC8+RFBJkuKONLAA4yPkTKWb85N0Mc1fjqj/aE8VxsS3j91/wRlu8/QlkvmlQIrjrnVffiGkMGOde+pXvfpK70DWR55utJp4vcdbLrBRufoeb5oRbgxGfOJzkK6GR2uyVCvcTWq6mZ3ke6Iw4mlIOYbL2QOBM99CHe3AxrMkLE8/BvfY6Xqn8cPgjdM1T3H1Jjgc6bjAiwRhwcoP8CGExuCGhG8YT36GhK96wY4UPZPEyPr8G0uRKL0q0XNz136sxhKL73LQLAnLTF8h4snIHFLoz/6KoNlXsvC0dSQnl/cZZe4CNdlLOHzPakvq3qGCektSmrdOY3WeQnJ1/AJgn4evj3ohXhzQmbdIs5bD1crotrdAE5LvkJSR5dvIvMAWl4hfHnQgxnieyl8o9DsMSI77yv1Gq/gEw7eDztS4AO9lQJ+Z5aud1H6VzS7m0piGO6tFC+Jncw3ddoxJVEM5tzQX2plk5TmIh+dN7uEChUqVKhQQVGx+Kbi5Xx5PfX4+VQ83Kpo1eyry+e366nE+/waa/RTae+9pkTjO68uXzc0RamG+BwlE9HoW/DtatFoLMTn6u/g26T18Qcbu/QqJRMsy+Zej28rHottCF/5aKfUfP/6bvo/IbA+lk3/FPj238c1Jf7D4XtT490kvjdW9T+hEN+/pTfj06Kxuef9TkPE/KuWFfy/wlc+OFiRe5SLxeLKlIQvo5YZwUkOcOcLfAcrzvMNfDyU/1p1vlKh7yM/vuLWLmiLfDjE7XqRlsHtrSTZRnxs+iibYgtptnG0cNPlw4qSMAwtlS0uXONgL9tIRRVNizUrpZ19WjZ/WK80FS0e15qlJL9gyMVsKp4wEtHKobtzvw41KEHMFI31dl15VPL1ZtyA8qXkwmXL25UoVCeRUFL1ozUh9OMrJeKaphlF3K4nYNNppNsGbm+T7V0NAh02XSD/KEaqOD/VXjShKTE4nRI3sh6O4k7PwHMpCty7ArwS5E5SBrhREPh9tpDrFef4+GwiDmWhtJaIOkCOqnHgjDvxV9AAetw5D/w4pSqcKabEYlq156vOoRbH2ijkmGrpO3Nz5MN3hJvRKq1xHSubcPDFscwh2d4Cbu9YT5rmVXinCncQi5F7jCZKLo5dgzJ1v1F6ZHdKoR8R3ztWSR+45cu9RNRTzKBXPfL2say7pdAjijHNPTXsS3tOLVuNzc+zti5zju+A/LpOfb+Or8AuSOvxLj3HOCgXw61vNu5Acg/YWoGPLVRc/9FLk2KKRosbeZzvPEp7hT0p5L0IRVoQbFIh/6bL1I6TVWrBCjH7qLHYrr87Pp5pEGBuVPptfFouzWoJen9HZH+e0NPilVKFNj3aB8zxFYgUNnHowwetOp0j1mzsU/+RNfCkObZRSuUQCOEKjTedTmhR2tKpDIOAapD65JqlRpNwT+9SfBW0yVgi1Sg1elpCqxbXiw86ODD2tNdFfBOf1kiW+fIe6bjYFNnfQxxaA2tZrOCxhV0fPraQKu1ms1ulnuYMdlF8RfDGe8RsoDjSK5LfxNjBfi1JyCBX5iAPOkQ7K9TzrrD8HqFdQBfGH5Jj06RLLEO/B/fjuKnkVnQ99Dx8eSMai8Yr3v4FfHgfaR8+g+7PY32j5MO+ATiUFG3I5WYM25GLDw8+cs/LO0OtFB8pf4Rmo6QIvl3cTmdJKMPsp12u5JD9BPvuXWHeiWGRHrJP7FHL3cbyuSM0v2IVumGtPi/7fal5cvCVAV5US83d+1/hI/UpgT1Qs6zH4fiE28EcArJ3Tusl+HJ7uEkfq6Ty4QNLQbNBADzrGBDtCCvwBbgaJyqk+LIOOLIGpFhF8k6/yfMEd53iQ+tT1p4dEXxaFmMqrekLjpYa70t8eAtHOeoLeKYJDTmWdn/jvPHu3bs0hZktUHw8s7Dy1ocPttGEDuCEeYMCcLSDx1b5OT74MutfCEgMN7ftfmwoBCaImAM47l28gzUulU7SkAAHQf0x3Et8uRX4yN0qDUgpqLvccbRbAHzOAQQfbV7+6/rxNbBTMzD0O0qQE7rnQRxs9YBZgY/+FFkNnVLJLd/DSjTJ97txGrAkett4W2vGhwS3/Ptfhe+AdNZNaCtGjLS6OJFWgFbGprdfi69UcPFt05+hkKYivqPq9BSr8JU0Wpx49XSadAIs7RGaNMqGUMao7K0JnouPBLYJ/1Da6/DlHHzEDFk3pKWb8b+BbyfNvhCmPqTRr8DX0KIvD6BdULlCIj/coRi9dXWCBJ9SauKlqtvz/W/DV6T4ctT64mA4uXj1b+NT0j7FIdLhvoavRPAV/OXTBfc6e6kEOiWMKpXq/hrxxXfypKuoevHFX+PDDyRywb7a4Xi47Vf+TfgSRdg6RHxaafE8Zed/ET/H552qTvq+rYXih/Pr5HdSubRnk+vwH27ct4dZQyzuGfkWwZf8Nj7i+ArgeWnAUVg6NynzJnxJg55wpVbg2yExwdFiuYXrFHdoNgLVXyc+JosbMS922YnPE+3tOLsaH+m5SZyKERoJTxaEZd6E78DA8yjl+XmY+QOCFN+WH1/SiLpx3/zUS5s8TZRK68UHBND9unkHGeNQaEK2Eh/UJUmaLOm0Dmkbyftq/0Z8eBr4GUhiVuHnI9Dz/3dH3vXz8zOViefN7TJ+aGRrn/cqwedYh/F3YubTixEXJynKYxYWTWfRGndW4IOaHdHRgwbWq0yCBiWXLZIf/CBZdxvL2/A5OWzzCAew+HLxqFL0DinTnHaHPG9e3CbBNclp2HQvSTPd/HaFJ492lY3orrsSJ0k71O/Pjnkx3gcp7L57f6RizUojRfy/H1+hWSk1mqShOV6Y2aa+N52DAyrNdC5X/1v4qPmxSqKQqjR674xE1TfS1PSq1GumE2iGjvnB78amGo0ea6SrB+Q6eSOmGdFKfateoiNgOBfLff81wAujzejHFKf7OzRIzBRTFOUFPrZQ0Ao0RjWyTjNrOC4Oh5BZJ1V9Iz7UAR23o2divVyRyI0KNVqHMp4yaSwUZxP7pPGSAcKYggG1xpJ+ubh2fEWcMmfdiegKVtZNSZbwecqVnF6e4UvGwjcs7/O8uVfjY4rswhXmCTC0yJz/m0SRoUNWin8v4PblbF5QTYLQdeCrgrUknA5vx4AP7gwH36hqLj34Gd/TKLheLXj2oaQxW/e87CGbnltO4b0zfZHNwTmNl/g0TdGc8fZSGq9adCHVc/PcQ0mnfAft5+LeN9p7Z5iq2DDmwJUqGXBhtqOG5tGDruBoTU8cJnuVSqXnpBvlCpGbvO1V0gmieKq0vU/bdPGw1GMTOQOUaDozai7A8lGDhd3wVTq1m3Squ41n7CWX8ZXIleiuXVKk6Noxzi4VcgaOKLOVnYV0q1hnE+lcwkinm6UjOu0Jf+WzzVwuAbtz70qHRedWkvUm1NyA/wqNw/XEzH+pcn4/mdxfXkxaLpLdBytqVC6uOoB585AHvfDSDC15wzi9wNK1+YMV5WFn0tn5Qz7xxS+N4S1Ucx1PuvgH7uaJ76Je7qJHcT/SSya8pGKxO55nG2vopt2r8oz/Is5+t3WurA9+J/5I+Dy9rK6zb034vMss4/tqffh5pb53ff59bQSfu/Xz4wsVKlSoUKFChQoVKlSoUKFChQoVKlSoUKFChfr++j+9nyyO2rBVeQAAAABJRU5ErkJggg==;" parent="1" vertex="1">
          <mxGeometry x="665" y="650" width="120" height="60" as="geometry" />
        </mxCell>
        <mxCell id="r85nlmR_cv3qLG-WCyQc-21" value="" style="edgeStyle=elbowEdgeStyle;elbow=horizontal;endArrow=classic;html=1;curved=0;rounded=0;endSize=8;startSize=8;exitX=0.5;exitY=1;exitDx=0;exitDy=0;" edge="1" parent="1" source="Q9UF3QvVFfd2fX2CLm1--19" target="Q9UF3QvVFfd2fX2CLm1--17">
          <mxGeometry width="50" height="50" relative="1" as="geometry">
            <mxPoint x="520" y="440" as="sourcePoint" />
            <mxPoint x="570" y="390" as="targetPoint" />
            <Array as="points">
              <mxPoint x="453" y="520" />
            </Array>
          </mxGeometry>
        </mxCell>
        <mxCell id="r85nlmR_cv3qLG-WCyQc-22" value="" style="edgeStyle=elbowEdgeStyle;elbow=vertical;endArrow=classic;html=1;curved=0;rounded=0;endSize=8;startSize=8;exitX=1;exitY=0.5;exitDx=0;exitDy=0;" edge="1" parent="1" source="Q9UF3QvVFfd2fX2CLm1--37" target="Q9UF3QvVFfd2fX2CLm1--18">
          <mxGeometry width="50" height="50" relative="1" as="geometry">
            <mxPoint x="635" y="621" as="sourcePoint" />
            <mxPoint x="685" y="571" as="targetPoint" />
          </mxGeometry>
        </mxCell>
        <mxCell id="r85nlmR_cv3qLG-WCyQc-23" value="http /" style="text;html=1;align=center;verticalAlign=middle;whiteSpace=wrap;rounded=0;" vertex="1" parent="1">
          <mxGeometry x="200" y="261" width="60" height="30" as="geometry" />
        </mxCell>
        <mxCell id="r85nlmR_cv3qLG-WCyQc-24" value="http /api" style="text;html=1;align=center;verticalAlign=middle;whiteSpace=wrap;rounded=0;" vertex="1" parent="1">
          <mxGeometry x="210" y="441.5" width="60" height="30" as="geometry" />
        </mxCell>
        <mxCell id="r85nlmR_cv3qLG-WCyQc-25" value="http /auth" style="text;html=1;align=center;verticalAlign=middle;whiteSpace=wrap;rounded=0;" vertex="1" parent="1">
          <mxGeometry x="210" y="580" width="60" height="30" as="geometry" />
        </mxCell>
        <mxCell id="r85nlmR_cv3qLG-WCyQc-28" value="" style="sketch=0;outlineConnect=0;fontColor=#232F3E;gradientColor=none;fillColor=#7AA116;strokeColor=none;dashed=0;verticalLabelPosition=bottom;verticalAlign=top;align=center;html=1;fontSize=12;fontStyle=0;aspect=fixed;pointerEvents=1;shape=mxgraph.aws4.bucket_with_objects;" vertex="1" parent="1">
          <mxGeometry x="1088.5" y="282" width="75" height="78" as="geometry" />
        </mxCell>
        <mxCell id="r85nlmR_cv3qLG-WCyQc-29" value="Cloud object storage as S3, Blob.&lt;br&gt;or shared network storage as NFS,&amp;nbsp;" style="text;html=1;align=center;verticalAlign=middle;whiteSpace=wrap;rounded=0;fontSize=14;" vertex="1" parent="1">
          <mxGeometry x="1000" y="199" width="230" height="71" as="geometry" />
        </mxCell>
        <mxCell id="r85nlmR_cv3qLG-WCyQc-30" value="" style="edgeStyle=elbowEdgeStyle;elbow=vertical;endArrow=classic;html=1;curved=0;rounded=0;endSize=8;startSize=8;exitX=0.5;exitY=0;exitDx=0;exitDy=0;" edge="1" parent="1" source="Q9UF3QvVFfd2fX2CLm1--20" target="r85nlmR_cv3qLG-WCyQc-28">
          <mxGeometry width="50" height="50" relative="1" as="geometry">
            <mxPoint x="550" y="80" as="sourcePoint" />
            <mxPoint x="600" y="30" as="targetPoint" />
            <Array as="points">
              <mxPoint x="440" y="330" />
            </Array>
          </mxGeometry>
        </mxCell>
        <mxCell id="r85nlmR_cv3qLG-WCyQc-31" value="G4IT Namespace" style="text;html=1;align=center;verticalAlign=middle;whiteSpace=wrap;rounded=0;" vertex="1" parent="1">
          <mxGeometry x="383" y="668" width="70" height="30" as="geometry" />
        </mxCell>
        <mxCell id="r85nlmR_cv3qLG-WCyQc-32" value="" style="shape=image;editableCssRules=.*;verticalLabelPosition=bottom;labelBackgroundColor=default;verticalAlign=top;aspect=fixed;imageAspect=0;image=data:image/svg+xml,PHN2ZyB4bWxucz0iaHR0cDovL3d3dy53My5vcmcvMjAwMC9zdmciIHZpZXdCb3g9Ii0wLjUgLTAuNSAyOCAyOCIgaGVpZ2h0PSIyOCIgd2lkdGg9IjI4Ij4mI3hhOwkgIDxzdHlsZSB0eXBlPSJ0ZXh0L2NzcyI+LnN0MCB7IHN0b3AtY29sb3I6IHJnYig5MSwgMTE1LCAxMzkpOyB9IC5zdDEgeyBzdG9wLWNvbG9yOiByZ2IoMzQsIDUzLCA3Mik7IH0gPC9zdHlsZT4mI3hhOwk8ZGVmcz4mI3hhOwkJPGxpbmVhckdyYWRpZW50IGdyYWRpZW50VW5pdHM9InVzZXJTcGFjZU9uVXNlIiB5Mj0iMjUuMzA5IiB4Mj0iMjMuNDU0IiB5MT0iMy40NzQiIHgxPSIyLjAzOSIgaWQ9IkEiPiYjeGE7CQkJPHN0b3AgY2xhc3M9InN0MCIvPiYjeGE7CQkJPHN0b3AgY2xhc3M9InN0MSIgb2Zmc2V0PSIxIi8+JiN4YTsJCTwvbGluZWFyR3JhZGllbnQ+JiN4YTsJPC9kZWZzPiYjeGE7CTxwYXRoIGZpbGw9InVybCgjQSkiIGQ9Ik0yMS43NDcgMTMuMmExMS4zNSAxMS4zNSAwIDAgMSA0LjE2NCAzLjk0NWMxLjA1OSAxLjY4IDEuNTg5IDMuNTc5IDEuNTg5IDUuNjk5djMuMTIzYzAgMS4wMjItLjUzIDEuNTM0LTEuNTg5IDEuNTM0SDcuMjgyYy0uNDc1IDAtLjg1OS0uMTQ2LTEuMTUyLS40MzgtLjI5MS0uMjU2LS40MzgtLjYyMS0uNDM4LTEuMDk2di0xLjU4OUgxLjAzNGMtMS4wMjIgMC0xLjUzNC0uNTEyLTEuNTM0LTEuNTM0VjE5LjcyYTcuMjcgNy4yNyAwIDAgMSAxLjI2MS00LjE2NmMuODAzLTEuMjA5IDEuOTIxLTIuMTc1IDMuMjMzLTIuNzkzLS40NjQtLjUyOC0uODE4LTEuMTQzLTEuMDQyLTEuODA5YTYuODggNi44OCAwIDAgMS0uMzMtMi4wODFjMC0uODc3LjE2NS0xLjY4LjQ5NC0yLjQxMWE2LjE3IDYuMTcgMCAwIDEgMS4zMTUtMS45NzNjLjU2OC0uNTczIDEuMjM3LTEuMDM3IDEuOTczLTEuMzY5YTYuMDYgNi4wNiAwIDAgMSAyLjQxMS0uNDkzYy4yNTYgMCAuNDkzLjAxOC43MTIuMDUzYTIuNjUgMi42NSAwIDAgMSAuNzEyLjExQTcuNDEgNy40MSAwIDAgMSAxMi45MjYuMzc3YzEuMTM0LS41ODUgMi4zOTQtLjg4NiAzLjY3LS44NzcgMS4wOTYgMCAyLjEyLjIwMiAzLjA2OC42MDNzMS43NzEuOTY4IDIuNDY1IDEuNjk5Yy42OTQuNjk0IDEuMjQzIDEuNTE1IDEuNjQ1IDIuNDY1LjQwMy45MTIuNjAzIDEuOTE4LjYwMyAzLjAxNC4wMDMgMS4xNTItLjIzOSAyLjI5MS0uNzEyIDMuMzQyLS40MjIgMS4wMDEtMS4wOCAxLjg4NS0xLjkxOCAyLjU3NnpNMTYuNTk0IDIuNjIzYy0xLjMxNSAwLTIuNDI4LjQ1Ni0zLjM0MiAxLjM3MS0uODc3Ljg3Ny0xLjMxNSAxLjk3My0xLjMxNSAzLjI4OHMuNDM4IDIuNDI4IDEuMzE1IDMuMzQyYy45MTIuODc3IDIuMDI3IDEuMzE1IDMuMzQyIDEuMzE1czIuNDExLS40MzggMy4yODgtMS4zMTVhNC41NCA0LjU0IDAgMCAwIDEuMzY5LTMuMzQyYzAtMS4zMTUtLjQ1Ni0yLjQxMS0xLjM2OC0zLjI4OC0uODc3LS45MTQtMS45NzQtMS4zNzEtMy4yODktMS4zNzF6TTguNjUxIDUuNzQ5Yy0uODQyIDAtMS41NzEuMzEtMi4xOTIuOTMxLS41ODQuNTg0LS44NzcgMS4zMTUtLjg3NyAyLjE5MmEzLjA5IDMuMDkgMCAwIDAgLjg3NyAyLjE5MiAzLjA5IDMuMDkgMCAwIDAgMi4xOTIuODc3aDEuNzUzYTcuOTggNy45OCAwIDAgMS0xLjE1LTIuMTM3IDcuNjMgNy42MyAwIDAgMS0uNDM4LTIuNTJ2LS43NzFhNC4wMSA0LjAxIDAgMCAxIC4xNjMtLjc2NmgtLjMyOHpNMi42MjMgMjEuMzExaDMuMjMzYy4zMy0yLjUyMSAxLjM2OS00LjYwMyAzLjEyMy02LjI0N0g3LjI4M2MtMS4zMTUgMC0yLjQzLjQ1Ni0zLjM0NCAxLjM2OS0uODc3Ljg3Ny0xLjMxNSAxLjk3NC0xLjMxNSAzLjI4OXptMjEuNzU0IDEuNTM0YTcuNCA3LjQgMCAwIDAtLjYwMy0zLjAxNGMtLjM4My0uOTIxLS45NDItMS43NTgtMS42NDUtMi40NjVhNy4yNiA3LjI2IDAgMCAwLTIuNDY1LTEuNjk5Yy0uOTcxLS40MDYtMi4wMTUtLjYxMS0zLjA2OC0uNjAzLTEuMDk2IDAtMi4xMTguMjAyLTMuMDY4LjYwMy0uOTEyLjQwMy0xLjczNi45NjgtMi40NjUgMS42OTlhNy42NyA3LjY3IDAgMCAwLTEuNjQ1IDIuNDY1IDcuNCA3LjQgMCAwIDAtLjYwMSAzLjAxNHYxLjUzNGgxNS41NjF6Ii8+JiN4YTs8L3N2Zz4=;" vertex="1" parent="1">
          <mxGeometry x="1101" y="775" width="50" height="50" as="geometry" />
        </mxCell>
        <mxCell id="r85nlmR_cv3qLG-WCyQc-33" value="" style="image;aspect=fixed;html=1;points=[];align=center;fontSize=12;image=img/lib/azure2/identity/Entra_Managed_Identities.svg;" vertex="1" parent="1">
          <mxGeometry x="1094.3" y="693.56" width="68" height="60.440000000000005" as="geometry" />
        </mxCell>
        <mxCell id="r85nlmR_cv3qLG-WCyQc-34" value="Microsoft EntraID" style="text;html=1;align=center;verticalAlign=middle;whiteSpace=wrap;rounded=0;fontSize=14;" vertex="1" parent="1">
          <mxGeometry x="1163.5" y="710" width="69.6" height="40" as="geometry" />
        </mxCell>
        <mxCell id="r85nlmR_cv3qLG-WCyQc-35" value="Third party Identity providers" style="text;html=1;align=center;verticalAlign=middle;whiteSpace=wrap;rounded=0;fontSize=14;" vertex="1" parent="1">
          <mxGeometry x="1163.5000000000002" y="780" width="69.6" height="40" as="geometry" />
        </mxCell>
        <mxCell id="r85nlmR_cv3qLG-WCyQc-36" value="" style="edgeStyle=segmentEdgeStyle;endArrow=classic;html=1;curved=0;rounded=0;endSize=8;startSize=8;exitX=0.995;exitY=0.591;exitDx=0;exitDy=0;entryX=0.012;entryY=0.596;entryDx=0;entryDy=0;entryPerimeter=0;exitPerimeter=0;" edge="1" parent="1" source="Q9UF3QvVFfd2fX2CLm1--37" target="r85nlmR_cv3qLG-WCyQc-33">
          <mxGeometry width="50" height="50" relative="1" as="geometry">
            <mxPoint x="680" y="730" as="sourcePoint" />
            <mxPoint x="730" y="680" as="targetPoint" />
            <Array as="points">
              <mxPoint x="980" y="605" />
              <mxPoint x="980" y="730" />
            </Array>
          </mxGeometry>
        </mxCell>
        <mxCell id="r85nlmR_cv3qLG-WCyQc-37" value="" style="edgeStyle=elbowEdgeStyle;elbow=horizontal;endArrow=classic;html=1;curved=0;rounded=0;endSize=8;startSize=8;exitX=1.005;exitY=0.594;exitDx=0;exitDy=0;entryX=-0.044;entryY=0.64;entryDx=0;entryDy=0;entryPerimeter=0;exitPerimeter=0;" edge="1" parent="1" source="Q9UF3QvVFfd2fX2CLm1--37" target="r85nlmR_cv3qLG-WCyQc-32">
          <mxGeometry width="50" height="50" relative="1" as="geometry">
            <mxPoint x="680" y="730" as="sourcePoint" />
            <mxPoint x="730" y="680" as="targetPoint" />
            <Array as="points">
              <mxPoint x="980" y="700" />
            </Array>
          </mxGeometry>
        </mxCell>
        <mxCell id="r85nlmR_cv3qLG-WCyQc-38" value="oidc / samlv2" style="text;html=1;align=center;verticalAlign=middle;whiteSpace=wrap;rounded=0;" vertex="1" parent="1">
          <mxGeometry x="695" y="610" width="85" height="30" as="geometry" />
        </mxCell>
      </root>
    </mxGraphModel>
  </diagram>
</mxfile>
